# xmcd
#
# Track frame offsets: 
#        150
#        22043
#        36632
#        61170
#        80792
#        94445
#        124286
#        136797
#        198099
#        210870
#        225096
#        248695
#        263805
#
# Disc length: 3701 seconds
#
# Revision: 0
# Processed by: cddbd v1.5.2PL0 Copyright (c) Steve Scherf et al.
# Submitted via: ExactAudioCopy v1.0b1
#
DISCID=ac0e730d
DTITLE=Rush  - Can't Fight It - 1975-05-15 
DYEAR=1900
DGENRE=
TTITLE0=Can't Fight It 
TTITLE1=The Best I Can
TTITLE2=What You're Doing
TTITLE3=Anthem
TTITLE4=Beneath, Between and Behind
TTITLE5=In The End
TTITLE6=Fly By Night
TTITLE7=Working Man
TTITLE8=In The Mood
TTITLE9=Need Some Love
TTITLE10=Bad Boy
TTITLE11=Not Fade Away
TTITLE12=Can't Fight It
EXTD=
EXTT0=
EXTT1=
EXTT2=
EXTT3=
EXTT4=
EXTT5=
EXTT6=
EXTT7=
EXTT8=
EXTT9=
EXTT10=
EXTT11=
EXTT12=
PLAYORDER=
